<svg width="30" height="30" viewBox="0 0 30 30" fill="none" xmlns="http://www.w3.org/2000/svg">
<g clip-path="url(#clip0_642_24)">
<path d="M10.9375 22.0151V27.8126C10.9375 28.2176 11.1975 28.5764 11.5825 28.7039C11.6787 28.7351 11.7775 28.7501 11.875 28.7501C12.1675 28.7501 12.45 28.6126 12.63 28.3676L16.0213 23.7526L10.9375 22.0151Z" fill="white"/>
<path d="M29.6063 0.173617C29.3188 -0.0301334 28.9413 -0.0576334 28.6288 0.106117L0.503806 14.7936C0.171306 14.9674 -0.0249444 15.3224 0.0025556 15.6961C0.0313056 16.0711 0.280056 16.3911 0.633806 16.5124L8.45256 19.1849L25.1038 4.94737L12.2188 20.4711L25.3226 24.9499C25.4201 24.9824 25.5226 24.9999 25.6251 24.9999C25.7951 24.9999 25.9638 24.9536 26.1126 24.8636C26.3501 24.7186 26.5113 24.4749 26.5526 24.2011L29.9901 1.07612C30.0413 0.726117 29.8938 0.378617 29.6063 0.173617Z" fill="white"/>
</g>
<defs>
<clipPath id="clip0_642_24">
<rect width="30" height="30" fill="white"/>
</clipPath>
</defs>
</svg>
