<svg width="40" height="27" viewBox="0 0 40 27" fill="none" xmlns="http://www.w3.org/2000/svg">
<g opacity="0.15">
<path opacity="0.25" d="M32.9441 26.238C36.3745 23.0533 38.7813 18.6456 39.6877 13.9096C40.0081 12.2017 40.1019 9.15878 39.8753 7.70444C39.6409 6.19043 39.047 4.72118 38.1952 3.54279C36.0776 0.611733 32.1939 -0.67107 28.529 0.34324C27.0912 0.738522 25.9269 1.40976 24.7938 2.49119C23.692 3.54279 23.106 4.43777 22.6449 5.75041C21.8869 7.90581 22.051 10.2477 23.0903 12.2539C24.3484 14.6927 26.8646 16.4752 29.5683 16.8556C30.6936 17.0122 30.5764 16.9153 30.5217 17.6685C30.4044 19.2348 29.7871 20.8233 28.615 22.6208C27.9273 23.6574 27.8648 23.5083 29.8496 25.4027C31.9438 27.394 31.7485 27.3418 32.9441 26.238ZM29.9903 22.9489C30.7561 21.7482 31.4047 20.2267 31.6782 18.9364C31.8501 18.1533 31.8813 16.6393 31.7329 16.2366C31.5844 15.8562 31.3969 15.7593 30.6232 15.707C27.7867 15.4908 25.3565 13.8947 24.1765 11.4634C23.653 10.3894 23.5514 9.88222 23.5592 8.46517C23.5592 7.3017 23.5826 7.13762 23.778 6.52605C24.5672 4.04994 26.6224 2.14811 29.2167 1.48434C30.1466 1.24568 32.0142 1.23822 32.905 1.47688C35.9916 2.28982 38.1015 4.72864 38.5937 8.04752C38.711 8.86791 38.6953 11.4484 38.5547 12.4926C38.3437 14.1259 37.9921 15.5653 37.4607 17.0048C36.3667 19.9657 34.5069 22.852 32.1939 25.1565L31.8344 25.5071L30.7561 24.4778L29.6699 23.4412L29.9903 22.9489Z" fill="white"/>
<path opacity="0.25" d="M11.0469 25.9319C14.8211 22.2625 17.1732 17.3848 17.7358 12.0597C17.8687 10.7769 17.7827 8.07705 17.5874 7.1597C16.6731 2.97567 13.438 0.193776 9.28086 0.0222391C6.7725 -0.0821749 4.56107 0.693474 2.77162 2.31189C1.34943 3.60216 0.458609 5.15345 0.106969 6.97324C-0.0727575 7.87568 -0.0180578 9.70293 0.208555 10.5233C1.09938 13.7154 3.5843 16.0424 6.90534 16.7807C7.27261 16.8628 7.70239 16.9299 7.86649 16.9299C8.35097 16.9299 8.38223 16.9821 8.31971 17.713C8.18687 19.2419 7.6008 20.7559 6.42086 22.613C5.99889 23.2693 5.92075 23.4409 5.95982 23.6199C5.99889 23.769 6.499 24.306 7.59299 25.3501C8.46818 26.178 9.23398 26.894 9.29649 26.9313C9.359 26.9686 9.53092 26.9984 9.67939 26.9984C9.92944 26.9984 10.0467 26.9014 11.0469 25.9319ZM7.99933 22.5981C9.17146 20.6366 9.81223 18.332 9.60906 16.7882C9.48403 15.8261 9.42933 15.7813 8.4213 15.7067C5.16277 15.4606 2.54501 13.4544 1.57604 10.4637C1.38069 9.85955 1.36506 9.71039 1.36506 8.50217C1.36506 7.29394 1.38069 7.14478 1.57604 6.54067C2.27151 4.40018 3.64681 2.8638 5.71758 1.93899C6.81938 1.44675 7.50703 1.30504 8.85889 1.30504C9.83567 1.30504 10.1404 1.33487 10.6952 1.47658C13.3755 2.16273 15.4463 4.24356 16.1574 6.95087C16.4074 7.8906 16.4699 8.55437 16.4778 10.0684C16.4778 13.3425 15.7901 16.2437 14.2976 19.2046C13.2036 21.3749 12.0471 22.9859 10.1795 24.9399L9.64032 25.4993L8.56195 24.4775L7.49141 23.4558L7.99933 22.5981Z" fill="white"/>
</g>
</svg>
