<svg width="287" height="199" viewBox="0 0 287 199" fill="none" xmlns="http://www.w3.org/2000/svg">
<g opacity="0.05">
<path opacity="0.25" d="M61.4127 60.1457L61.4149 60.1354C63.3316 50.8479 67.8975 39.8326 73.2937 31.1402C73.2948 31.1384 73.296 31.1366 73.2971 31.1348L75.5821 27.5289L76.2315 26.5042L75.3652 25.6549L67.5935 18.0361L59.8777 10.4721L58.8163 9.43155L57.7661 10.4834L55.1942 13.0596L55.1885 13.0653L55.1829 13.071C38.485 30.1593 25.0614 51.5551 17.1599 73.5207L17.1598 73.5211C13.3191 84.2075 10.7787 94.8927 9.25601 106.998C8.74044 110.932 8.46112 117.667 8.41214 124.129C8.36326 130.578 8.54226 136.927 8.97853 140.064L8.97961 140.072C12.5788 164.994 28.0557 183.446 50.7729 189.593C54.1547 190.523 59.2464 190.948 64.2622 190.934C69.2846 190.92 74.4337 190.466 77.9392 189.542C96.9959 184.534 112.102 170.182 117.905 151.484C118.611 149.214 119.037 147.679 119.27 145.601C119.497 143.572 119.538 141.048 119.538 136.791M61.4127 60.1457L118.038 136.788M61.4127 60.1457C60.8258 62.8917 60.4662 67.0061 60.3902 70.8312C60.3524 72.7348 60.3856 74.5361 60.4908 76.0289C60.5985 77.5573 60.7737 78.6221 60.9621 79.1554C61.4208 80.358 61.8275 80.8402 62.5134 81.1805C63.3728 81.6068 64.8069 81.8758 67.5976 82.0692L67.611 82.0702C88.4202 83.7 106.294 95.7367 114.976 114.11M61.4127 60.1457L113.621 114.753M119.538 136.791C119.538 136.79 119.538 136.789 119.538 136.788H118.038M119.538 136.791C119.538 136.793 119.538 136.794 119.538 136.796L118.038 136.788M119.538 136.791C119.566 131.567 119.4 127.907 118.726 124.531C118.048 121.137 116.872 118.105 114.976 114.11M118.038 136.788C118.094 126.373 117.367 122.646 113.621 114.753M114.976 114.11C114.976 114.111 114.977 114.112 114.977 114.113L113.621 114.753M114.976 114.11L113.621 114.753M2.77778 142.153L2.77799 142.155C4.42274 153.065 8.59001 163.642 14.5424 172.1L14.5426 172.1C29.3097 193.094 56.4284 202.323 82.068 195.035L82.0705 195.034C92.0998 192.202 100.214 187.405 108.154 179.621C115.882 172.045 119.942 165.665 123.16 156.254L123.16 156.253C128.454 140.791 127.306 123.999 120.053 109.619L120.052 109.617C111.265 92.1204 93.6755 79.333 74.828 76.6093C74.0875 76.5035 73.4071 76.4115 72.7892 76.3281C71.7782 76.1915 70.9344 76.0775 70.2683 75.962C69.2642 75.788 68.2089 75.5538 67.4747 74.9081C66.5856 74.1261 66.4804 73.0738 66.4893 72.2412C66.4946 71.7524 66.5508 71.1126 66.6138 70.3955C66.6514 69.9674 66.6915 69.5118 66.7245 69.0444L66.7247 69.0412C67.5869 57.2077 72.1252 45.2946 80.5968 31.9513L80.6031 31.9416C80.8578 31.547 81.0949 31.1839 81.3147 30.847C82.21 29.4755 82.8196 28.5413 83.1784 27.7101C83.3836 27.2348 83.466 26.8746 83.4754 26.5636C83.4846 26.2619 83.4278 25.9253 83.2405 25.4933C82.8339 24.5552 81.8887 23.3199 80.0059 21.341C78.5264 19.7861 76.57 17.873 74.0273 15.3864C73.3834 14.7568 72.7019 14.0904 71.9811 13.3837C71.1248 12.5474 70.3246 11.7627 69.5749 11.0275C67.0231 8.52534 65.0555 6.5959 63.4487 5.15248C61.325 3.24471 60.0636 2.41095 59.1465 2.15649C58.4549 1.96461 57.8316 2.06532 56.7306 2.8645C55.8089 3.53362 54.773 4.52792 53.3384 5.90491C52.9055 6.32045 52.4364 6.77075 51.923 7.25758C27.618 30.4333 10.543 62.5371 4.11172 97.0474C1.84403 109.467 1.18559 131.658 2.77778 142.153Z" fill="white" stroke="#141618" stroke-width="3"/>
<path opacity="0.25" d="M220.258 197.336L220.258 197.336C237.819 198.087 253.247 192.521 265.747 180.91C275.696 171.638 281.905 160.522 284.36 147.473L284.362 147.465C284.974 144.308 285.2 139.419 285.062 134.522C284.923 129.62 284.424 124.897 283.66 122.054C277.431 99.1286 260.079 82.4387 236.857 77.1357L236.856 77.1354C234.23 76.5331 231.302 76.0772 230.314 76.0772C229.467 76.0772 228.632 76.0592 227.933 75.8922C227.151 75.7052 226.396 75.2968 225.919 74.4514C225.508 73.7243 225.415 72.8522 225.402 72.0105C225.388 71.1344 225.465 70.0324 225.576 68.6975L225.577 68.6955C226.553 57.1465 230.864 45.7915 239.382 32.0216L239.386 32.0149C240.906 29.5877 241.742 28.1552 242.174 27.1851C242.533 26.3781 242.544 26.0436 242.505 25.805C242.492 25.7784 242.465 25.7278 242.417 25.6497C242.315 25.4837 242.156 25.2558 241.926 24.9574C241.466 24.3617 240.78 23.5611 239.838 22.5328C237.958 20.4804 235.13 17.5984 231.223 13.7686C228.094 10.7285 225.163 7.89615 222.96 5.79063C221.857 4.73703 220.94 3.86906 220.274 3.24921C219.939 2.93855 219.674 2.69563 219.481 2.5247C219.379 2.43396 219.316 2.38019 219.283 2.35191C219.26 2.34344 219.226 2.3317 219.179 2.31758C219.054 2.27937 218.884 2.23874 218.678 2.20184C218.265 2.12762 217.78 2.08156 217.343 2.08156C217.016 2.08156 216.834 2.1118 216.626 2.19551C216.381 2.29427 216.017 2.50311 215.404 2.99702C214.153 4.00352 212.223 5.89194 208.616 9.48257C181.865 36.1975 165.182 71.719 161.19 110.521C160.725 115.138 160.639 122.378 160.848 129.337C161.057 136.317 161.559 142.842 162.228 146.072C168.64 176.204 191.251 196.107 220.258 197.336ZM230.663 33.6696L230.66 33.6747C222.365 47.9325 217.937 64.5307 219.334 75.428L219.334 75.4303C219.56 77.2149 219.741 78.4604 219.986 79.3804C220.227 80.2832 220.485 80.6958 220.748 80.9405C221.015 81.1888 221.458 81.4248 222.401 81.6181C223.356 81.8141 224.637 81.9322 226.458 82.0706L226.46 82.0708C250.374 83.926 269.633 99.0738 276.753 121.648L276.754 121.648C277.462 123.898 277.875 125.396 278.094 127.486C278.306 129.518 278.332 132.098 278.332 136.514C278.332 140.931 278.306 143.51 278.094 145.543C277.875 147.633 277.462 149.131 276.754 151.38L276.753 151.382C271.652 167.507 261.526 179.134 246.315 186.112C242.313 187.948 239 189.16 235.428 189.903C231.862 190.645 228.1 190.907 223.213 190.907C216.168 190.907 213.842 190.686 209.693 189.598L209.693 189.597C189.964 184.41 174.756 168.686 169.539 148.289C167.706 141.21 167.256 136.191 167.2 125.011V125.004C167.2 100.713 172.172 79.165 182.952 57.1988C190.851 41.1039 199.213 29.1449 212.666 14.6877L212.67 14.6831L216.528 10.5722L217.574 9.45837L218.668 10.5237L226.384 18.0329L226.388 18.0367L234.048 25.5459L234.878 26.3595L234.297 27.3663L230.663 33.6696Z" fill="white" stroke="#141618" stroke-width="3"/>
</g>
</svg>
