<svg width="45" height="45" viewBox="0 0 45 45" fill="none" xmlns="http://www.w3.org/2000/svg">
<g clip-path="url(#clip0_749_435)">
<path d="M42.1594 20.5781L22.5001 32.3756L2.84069 20.5781C2.41427 20.3223 1.90368 20.2463 1.42124 20.3669C0.938802 20.4875 0.524036 20.7948 0.268185 21.2212C0.0123342 21.6477 -0.0636439 22.1583 0.0569655 22.6407C0.177575 23.1231 0.484892 23.5379 0.91131 23.7937L21.5363 36.1687C21.8279 36.344 22.1617 36.4365 22.5019 36.4365C22.8421 36.4365 23.1759 36.344 23.4676 36.1687L44.0926 23.7937C44.519 23.5379 44.8263 23.1231 44.9469 22.6407C45.0675 22.1583 44.9915 21.6477 44.7357 21.2212C44.4798 20.7948 44.0651 20.4875 43.5826 20.3669C43.1002 20.2463 42.5896 20.3223 42.1632 20.5781H42.1594Z" fill="#ACACAC"/>
<path d="M42.1594 29.1431L22.5001 40.9387L2.84068 29.1431C2.62954 29.0164 2.39551 28.9326 2.15196 28.8963C1.90842 28.8601 1.66011 28.8722 1.42123 28.9319C1.18236 28.9916 0.957578 29.0978 0.759737 29.2444C0.561895 29.391 0.394864 29.5751 0.26818 29.7862C0.141495 29.9974 0.0576382 30.2314 0.0213971 30.475C-0.014844 30.7185 -0.00275979 30.9668 0.0569599 31.2057C0.177569 31.6881 0.484886 32.1029 0.911305 32.3587L21.5363 44.7337C21.8279 44.909 22.1617 45.0015 22.5019 45.0015C22.8421 45.0015 23.1759 44.909 23.4676 44.7337L44.0926 32.3587C44.519 32.1029 44.8263 31.6881 44.9469 31.2057C45.0675 30.7233 44.9915 30.2127 44.7357 29.7862C44.4798 29.3598 44.0651 29.0525 43.5826 28.9319C43.1002 28.8113 42.5896 28.8873 42.1632 29.1431H42.1594Z" fill="#ACACAC"/>
<path d="M0.90927 15.6694L19.6293 26.9025C20.496 27.4239 21.4884 27.6994 22.4999 27.6994C23.5114 27.6994 24.5038 27.4239 25.3705 26.9025L44.0905 15.6694C44.3677 15.5027 44.5971 15.2671 44.7564 14.9855C44.9156 14.704 44.9993 14.386 44.9993 14.0625C44.9993 13.739 44.9156 13.4211 44.7564 13.1395C44.5971 12.8579 44.3677 12.6223 44.0905 12.4556L25.3705 1.22251C24.5036 0.701692 23.5113 0.426544 22.4999 0.426544C21.4885 0.426544 20.4962 0.701692 19.6293 1.22251L0.90927 12.4556C0.632047 12.6223 0.402665 12.8579 0.243421 13.1395C0.0841775 13.4211 0.000488281 13.739 0.000488281 14.0625C0.000488281 14.386 0.0841775 14.704 0.243421 14.9855C0.402665 15.2671 0.632047 15.5027 0.90927 15.6694Z" fill="#ACACAC"/>
</g>
<defs>
<clipPath id="clip0_749_435">
<rect width="45" height="45" fill="white"/>
</clipPath>
</defs>
</svg>
