<svg width="45" height="45" viewBox="0 0 45 45" fill="none" xmlns="http://www.w3.org/2000/svg">
<g clip-path="url(#clip0_744_374)">
<path d="M22.5 30C21.0166 30 19.5666 29.5601 18.3332 28.736C17.0999 27.9119 16.1386 26.7406 15.5709 25.3701C15.0032 23.9997 14.8547 22.4917 15.1441 21.0368C15.4335 19.582 16.1478 18.2456 17.1967 17.1967C18.2456 16.1478 19.582 15.4335 21.0368 15.1441C22.4917 14.8547 23.9997 15.0032 25.3701 15.5709C26.7406 16.1386 27.9119 17.0999 28.736 18.3332C29.5601 19.5666 30 21.0166 30 22.5C30 24.4891 29.2098 26.3968 27.8033 27.8033C26.3968 29.2098 24.4891 30 22.5 30ZM10.6556 30H1.875C1.37772 30 0.900806 29.8025 0.549175 29.4508C0.197544 29.0992 0 28.6223 0 28.125C0.0177672 25.4327 0.996984 22.8353 2.76104 20.8014C4.5251 18.7675 6.95788 17.4308 9.62063 17.0325C9.93004 16.9892 10.2454 17.0238 10.538 17.1333C10.8306 17.2428 11.0912 17.4237 11.2961 17.6596C11.5011 17.8954 11.6438 18.1788 11.7114 18.4838C11.779 18.7888 11.7693 19.1059 11.6831 19.4063C11.3958 20.4124 11.25 21.4536 11.25 22.5C11.2505 24.1683 11.626 25.8151 12.3488 27.3188C12.4847 27.6042 12.5462 27.9193 12.5277 28.2349C12.5092 28.5504 12.4112 28.8562 12.2428 29.1237C12.0744 29.3913 11.8411 29.6119 11.5646 29.7651C11.2881 29.9183 10.9774 29.9991 10.6613 30H10.6556ZM31.875 45H13.125C12.6277 45 12.1508 44.8025 11.7992 44.4508C11.4475 44.0992 11.25 43.6223 11.25 43.125C11.25 40.1413 12.4353 37.2798 14.545 35.1701C16.6548 33.0603 19.5163 31.875 22.5 31.875C25.4837 31.875 28.3452 33.0603 30.455 35.1701C32.5647 37.2798 33.75 40.1413 33.75 43.125C33.75 43.6223 33.5525 44.0992 33.2008 44.4508C32.8492 44.8025 32.3723 45 31.875 45ZM33.75 15C32.2666 15 30.8166 14.5601 29.5832 13.736C28.3499 12.9119 27.3886 11.7406 26.8209 10.3701C26.2532 8.99968 26.1047 7.49168 26.3941 6.03683C26.6835 4.58197 27.3978 3.2456 28.4467 2.1967C29.4956 1.14781 30.832 0.433503 32.2868 0.144114C33.7417 -0.145275 35.2497 0.00324961 36.6201 0.570907C37.9906 1.13856 39.1619 2.09986 39.986 3.33323C40.8101 4.5666 41.25 6.01664 41.25 7.5C41.25 9.48913 40.4598 11.3968 39.0533 12.8033C37.6468 14.2098 35.7391 15 33.75 15ZM11.25 15C9.76664 15 8.31659 14.5601 7.08322 13.736C5.84985 12.9119 4.88856 11.7406 4.3209 10.3701C3.75325 8.99968 3.60472 7.49168 3.89411 6.03683C4.1835 4.58197 4.89781 3.2456 5.9467 2.1967C6.99559 1.14781 8.33197 0.433503 9.78682 0.144114C11.2417 -0.145275 12.7497 0.00324961 14.1201 0.570907C15.4906 1.13856 16.6619 2.09986 17.486 3.33323C18.3101 4.5666 18.75 6.01664 18.75 7.5C18.75 9.48913 17.9598 11.3968 16.5533 12.8033C15.1468 14.2098 13.2391 15 11.25 15ZM43.125 30H34.3444C34.0283 29.9991 33.7175 29.9183 33.441 29.7651C33.1645 29.6119 32.9312 29.3913 32.7628 29.1237C32.5944 28.8562 32.4964 28.5504 32.4779 28.2349C32.4594 27.9193 32.5209 27.6042 32.6569 27.3188C33.3776 25.8147 33.7512 24.1679 33.75 22.5C33.7469 21.4532 33.598 20.4119 33.3075 19.4063C33.2209 19.1051 33.2111 18.787 33.2791 18.481C33.3472 18.1751 33.4908 17.8911 33.6968 17.655C33.9029 17.4189 34.1649 17.2382 34.4588 17.1295C34.7528 17.0207 35.0692 16.9874 35.3794 17.0325C38.0421 17.4308 40.4749 18.7675 42.239 20.8014C44.003 22.8353 44.9822 25.4327 45 28.125C45 28.6223 44.8025 29.0992 44.4508 29.4508C44.0992 29.8025 43.6223 30 43.125 30Z" fill="#ACACAC"/>
</g>
<defs>
<clipPath id="clip0_744_374">
<rect width="45" height="45" fill="white"/>
</clipPath>
</defs>
</svg>
