<svg width="45" height="45" viewBox="0 0 45 45" fill="none" xmlns="http://www.w3.org/2000/svg">
<g clip-path="url(#clip0_749_444)">
<path d="M29.9999 15C27.8807 15.0018 25.7861 15.4541 23.855 16.3269C21.9238 17.1997 20.2003 18.473 18.7987 20.0625C17.9052 19.6282 16.9646 19.2985 15.9956 19.08L18.5624 13.9631C18.7049 13.6778 18.7723 13.3609 18.7582 13.0424C18.7441 12.7238 18.649 12.4141 18.4818 12.1425C17.8866 11.275 17.0859 10.5683 16.1512 10.0854C15.2165 9.60251 14.1769 9.35845 13.1249 9.37499C12.0746 9.36001 11.0368 9.60481 10.1039 10.0876C9.17092 10.5705 8.37176 11.2763 7.77743 12.1425C7.61028 12.4141 7.51515 12.7238 7.50104 13.0424C7.48693 13.3609 7.55431 13.6778 7.6968 13.9631L10.2543 19.0762C8.32487 19.5011 6.51624 20.356 4.96328 21.5773C3.41031 22.7986 2.15309 24.3547 1.28537 26.1296C0.417641 27.9045 -0.0382032 29.8523 -0.0481727 31.828C-0.0581422 33.8036 0.37802 35.756 1.22779 37.5395C2.07756 39.3231 3.31901 40.8918 4.85957 42.1287C6.40012 43.3656 8.20004 44.2387 10.1251 44.683C12.0501 45.1273 14.0506 45.1313 15.9774 44.6946C17.9042 44.258 19.7076 43.392 21.253 42.1612C23.1719 43.5467 25.3913 44.4584 27.7299 44.822C30.0686 45.1855 32.46 44.9905 34.7089 44.2528C36.9577 43.5152 39.0001 42.2559 40.6691 40.5779C42.3381 38.8999 43.5863 36.8507 44.3118 34.5979C45.0373 32.3452 45.2194 29.9527 44.8432 27.616C44.4671 25.2794 43.5434 23.0649 42.1476 21.1536C40.7518 19.2423 38.9236 17.6884 36.8123 16.6189C34.701 15.5494 32.3666 14.9946 29.9999 15ZM21.0637 36.8062C19.8186 35.1885 19.0416 33.2598 18.8174 31.2307C18.5932 29.2016 18.9305 27.1499 19.7924 25.2994C21.278 26.7888 22.2131 28.7391 22.4441 30.8301C22.6751 32.921 22.1883 35.0284 21.0637 36.8062ZM3.74993 31.875C3.74597 30.3381 4.12092 28.8238 4.8416 27.4663C5.56228 26.1089 6.60646 24.9499 7.88175 24.0921C9.15705 23.2343 10.6241 22.7041 12.1531 22.5484C13.6822 22.3927 15.226 22.6163 16.6481 23.1994C15.3101 25.8044 14.7685 28.7456 15.0905 31.6563C15.4126 34.567 16.5842 37.3186 18.4593 39.5681C17.0553 40.5476 15.4094 41.1231 13.701 41.2319C11.9925 41.3407 10.287 40.9788 8.77 40.1854C7.25304 39.392 5.98282 38.1976 5.09767 36.7323C4.21251 35.267 3.74634 33.5869 3.74993 31.875ZM29.9999 41.25C27.8154 41.2507 25.6787 40.6112 23.8537 39.4106C25.6998 36.8011 26.5244 33.605 26.1712 30.428C25.818 27.2511 24.3116 24.3141 21.9374 22.1737C23.2303 20.8387 24.8339 19.8447 26.6047 19.2806C28.3756 18.7166 30.2586 18.6 32.0855 18.9414C33.9124 19.2828 35.6263 20.0715 37.0739 21.237C38.5216 22.4025 39.658 23.9084 40.3815 25.6203C41.105 27.3322 41.3932 29.1967 41.2202 31.0472C41.0472 32.8976 40.4184 34.6764 39.3901 36.2245C38.3618 37.7726 36.966 39.0419 35.3274 39.9189C33.6888 40.7958 31.8584 41.2531 29.9999 41.25Z" fill="#ACACAC"/>
<path d="M19.7868 9.17811C20.0076 9.28975 20.2483 9.35657 20.4951 9.37474C20.7418 9.39292 20.9897 9.36207 21.2245 9.28398C21.4593 9.2059 21.6763 9.08212 21.863 8.91978C22.0497 8.75744 22.2024 8.55976 22.3124 8.33811L24.1874 4.58811C24.4097 4.14305 24.4461 3.62791 24.2885 3.15602C24.131 2.68413 23.7925 2.29415 23.3474 2.07186C23.127 1.9618 22.8871 1.89622 22.6414 1.87887C22.3957 1.86151 22.149 1.89273 21.9153 1.97073C21.4434 2.12826 21.0534 2.4668 20.8312 2.91186L18.9562 6.66186C18.733 7.10575 18.6951 7.62006 18.8509 8.09185C19.0066 8.56363 19.3432 8.95432 19.7868 9.17811Z" fill="#ACACAC"/>
<path d="M3.94707 8.33811C4.16936 8.78442 4.55983 9.12415 5.0326 9.28256C5.26669 9.361 5.51394 9.39256 5.76023 9.37544C6.00652 9.35833 6.24702 9.29287 6.46801 9.1828C6.689 9.07274 6.88615 8.92022 7.0482 8.73397C7.21025 8.54771 7.33402 8.33136 7.41246 8.09727C7.49089 7.86318 7.52245 7.61594 7.50534 7.36965C7.48822 7.12336 7.42276 6.88285 7.3127 6.66186L5.4377 2.91186C5.21541 2.4668 4.82543 2.12826 4.35354 1.97073C3.88165 1.8132 3.36651 1.84958 2.92145 2.07186C2.47638 2.29415 2.13785 2.68413 1.98031 3.15602C1.82278 3.62791 1.85916 4.14305 2.08145 4.58811L3.94707 8.33811Z" fill="#ACACAC"/>
<path d="M13.125 7.5C13.6223 7.5 14.0992 7.30246 14.4508 6.95083C14.8025 6.5992 15 6.12228 15 5.625V1.875C15 1.37772 14.8025 0.900806 14.4508 0.549175C14.0992 0.197544 13.6223 0 13.125 0C12.6277 0 12.1508 0.197544 11.7992 0.549175C11.4475 0.900806 11.25 1.37772 11.25 1.875V5.625C11.25 6.12228 11.4475 6.5992 11.7992 6.95083C12.1508 7.30246 12.6277 7.5 13.125 7.5Z" fill="#ACACAC"/>
</g>
<defs>
<clipPath id="clip0_749_444">
<rect width="45" height="45" fill="white"/>
</clipPath>
</defs>
</svg>
