<svg width="45" height="45" viewBox="0 0 45 45" fill="none" xmlns="http://www.w3.org/2000/svg">
<g clip-path="url(#clip0_749_449)">
<path d="M45 16.875C44.7571 18.2364 44.2161 19.5273 43.4156 20.655L26.9475 42.8175C26.4254 43.492 25.7567 44.039 24.9921 44.417C24.2274 44.795 23.3868 44.9942 22.5339 44.9994C21.6809 45.0046 20.8379 44.8158 20.0687 44.4472C19.2994 44.0786 18.6241 43.5399 18.0938 42.8719L1.545 20.25C0.842025 19.2314 0.345774 18.0847 0.084375 16.875H11.8369L20.7488 40.0481C20.8844 40.4027 21.1244 40.7077 21.4371 40.9229C21.7498 41.138 22.1204 41.2532 22.5 41.2532C22.8796 41.2532 23.2502 41.138 23.5629 40.9229C23.8756 40.7077 24.1156 40.4027 24.2512 40.0481L33.1631 16.875H45ZM33.1875 13.125H44.9194C44.6342 11.8564 44.0868 10.6615 43.3125 9.61688L38.5163 3.14063C37.8217 2.16986 36.9058 1.3786 35.8444 0.832423C34.783 0.28625 33.6068 0.000893693 32.4131 3.62546e-06H28.2881L33.1875 13.125ZM20.8275 3.62546e-06L15.8419 13.125H29.1769L24.2906 3.62546e-06H20.8275ZM11.8313 13.125L16.815 3.62546e-06H12.4613C11.2777 -0.00116144 10.1108 0.278488 9.05635 0.815979C8.0019 1.35347 7.09002 2.13346 6.39563 3.09188L1.75875 9.17063C0.87151 10.3332 0.269146 11.6875 0 13.125H11.8313ZM29.145 16.875H15.855L22.5 34.1513L29.145 16.875Z" fill="#ACACAC"/>
</g>
<defs>
<clipPath id="clip0_749_449">
<rect width="45" height="45" fill="white"/>
</clipPath>
</defs>
</svg>
