<svg width="16" height="16" viewBox="0 0 16 16" fill="none" xmlns="http://www.w3.org/2000/svg">
<g clip-path="url(#clip0_657_85)">
<path d="M0.870716 4.97253L14.229 0.081954C14.4648 -0.0054905 14.7207 -0.0233999 14.9664 0.0303515C15.2121 0.0841028 15.4372 0.207258 15.615 0.385201C15.7929 0.563143 15.9159 0.788402 15.9697 1.03424C16.0234 1.28009 16.0055 1.53619 15.9181 1.77215L11.0256 15.1337C10.936 15.3807 10.7745 15.5951 10.562 15.7494C10.3495 15.9036 10.0956 15.9907 9.83324 15.9993C9.57084 16.0079 9.31187 15.9377 9.08971 15.7977C8.86756 15.6577 8.6924 15.4543 8.58681 15.2138L6.18802 9.80811L0.785759 7.40782C0.545379 7.30217 0.342129 7.1269 0.202207 6.90461C0.0622848 6.68231 -0.00789738 6.42318 0.000706114 6.16061C0.00930961 5.89804 0.0963044 5.64407 0.250478 5.43142C0.404652 5.21877 0.618938 5.0572 0.865718 4.96753L0.870716 4.97253Z" fill="#ACACAC"/>
</g>
<defs>
<clipPath id="clip0_657_85">
<rect width="16" height="16" fill="white"/>
</clipPath>
</defs>
</svg>
