<?xml version="1.0" standalone="no"?>
<!DOCTYPE svg PUBLIC "-//W3C//DTD SVG 20010904//EN"
 "http://www.w3.org/TR/2001/REC-SVG-20010904/DTD/svg10.dtd">
<svg version="1.0" xmlns="http://www.w3.org/2000/svg"
 width="512.000000pt" height="512.000000pt" viewBox="0 0 512.000000 512.000000"
 preserveAspectRatio="xMidYMid meet">

<g transform="translate(0.000000,512.000000) scale(0.100000,-0.100000)"
fill="none" stroke="none">
<path d="M1823 5104 c-42 -21 -83 -83 -90 -134 -5 -37 -8 -41 -27 -34 -47 16
-143 16 -175 -1 -95 -48 -91 -207 5 -270 l27 -18 -31 -26 c-73 -62 -94 -156
-48 -223 l23 -35 -59 -49 c-56 -46 -138 -129 -238 -239 -25 -28 -58 -59 -73
-70 -15 -11 -34 -39 -42 -62 -11 -32 -68 -133 -91 -161 -1 -2 -17 4 -35 14
-38 19 -126 22 -159 4 -26 -14 -23 -16 -39 40 -48 167 -214 189 -292 38 -10
-21 -19 -49 -19 -64 0 -20 -4 -25 -17 -20 -99 38 -193 19 -233 -47 -38 -62
-21 -137 47 -209 35 -36 35 -36 13 -48 -38 -20 -80 -99 -80 -149 0 -94 66
-148 169 -138 31 3 66 8 79 12 19 6 22 4 22 -18 0 -39 18 -79 52 -114 66 -68
147 -65 213 9 32 35 37 38 32 17 -3 -13 -9 -49 -13 -79 -4 -30 -15 -77 -25
-103 -11 -26 -19 -59 -19 -73 0 -37 28 -91 67 -129 l33 -32 -40 -41 c-51 -55
-68 -108 -52 -168 9 -33 12 -346 12 -1219 l0 -1175 -298 0 c-218 0 -301 -3
-310 -12 -15 -15 -15 -51 0 -66 17 -17 1489 -17 1506 0 15 15 15 51 0 66 -9 9
-82 12 -265 12 l-253 0 0 1065 0 1065 34 0 c65 0 138 73 151 151 6 32 10 39
23 33 111 -46 214 -10 243 85 17 57 -1 111 -54 165 l-42 41 34 30 c67 59 87
149 46 212 -39 59 -133 81 -210 49 -34 -15 -35 -14 -35 8 0 12 -11 44 -25 72
-21 42 -43 63 -103 100 -5 3 58 185 79 225 15 30 26 39 63 48 25 6 47 11 49
11 2 0 7 -19 10 -41 11 -82 102 -158 173 -144 55 10 111 67 130 132 14 49 18
54 37 48 56 -17 125 -17 162 1 97 46 101 182 9 263 l-33 30 23 19 c49 38 76
91 76 149 0 49 -4 59 -33 88 -37 37 -101 59 -144 49 l-28 -6 25 21 c52 45 207
144 280 181 l76 38 12 -166 c35 -487 164 -910 403 -1319 350 -597 947 -1082
1592 -1293 37 -12 67 -23 67 -24 0 -2 -18 -41 -39 -88 -159 -344 -271 -843
-271 -1210 l0 -88 -758 0 c-576 0 -761 -3 -770 -12 -15 -15 -15 -51 0 -66 9
-9 326 -12 1364 -12 1216 0 1354 2 1368 16 42 42 6 74 -85 74 l-69 0 0 1394
c0 1495 0 1490 -51 1720 -115 517 -437 980 -897 1289 -98 66 -329 182 -442
222 -112 40 -281 81 -410 101 -241 36 -596 18 -802 -42 -15 -5 -18 1 -18 38 0
53 -28 101 -71 124 -33 16 -132 16 -171 0 -13 -6 -18 -2 -23 21 -10 49 -47
113 -78 135 -38 27 -103 33 -144 12z m109 -105 c25 -33 25 -89 2 -163 -13 -42
-15 -62 -8 -74 21 -33 48 -24 109 37 69 68 117 85 160 57 34 -22 32 -57 -5
-99 -29 -33 -39 -38 -157 -67 -39 -10 -43 -14 -43 -41 0 -34 12 -40 105 -59
97 -20 156 -98 109 -144 -41 -41 -135 -4 -197 77 -32 42 -59 47 -81 16 -13
-19 -12 -27 5 -77 32 -93 22 -166 -27 -192 -33 -18 -70 8 -85 60 -10 34 -9 50
5 98 28 93 29 98 11 115 -26 26 -40 21 -92 -34 -57 -60 -89 -79 -137 -79 -27
0 -40 6 -51 24 -15 22 -15 27 -1 54 23 45 60 69 124 82 86 18 102 26 102 54 0
31 -14 41 -75 54 -74 16 -103 29 -130 58 -29 31 -32 70 -8 96 35 39 112 12
176 -63 44 -51 74 -61 97 -34 13 15 12 22 -14 115 -18 63 -13 109 16 140 26
28 65 23 90 -11z m1073 -259 c955 -90 1706 -819 1824 -1770 7 -49 11 -299 11
-597 l0 -513 -90 -45 c-49 -25 -94 -45 -99 -45 -6 0 -11 218 -13 587 -4 568
-4 592 -27 697 -101 486 -371 891 -770 1158 -178 119 -347 196 -543 247 -186
49 -248 56 -468 56 -207 0 -278 -7 -432 -46 -42 -10 -79 -19 -82 -19 -3 0 -6
16 -6 36 0 47 -24 97 -66 133 -28 25 -31 31 -18 42 8 7 27 13 42 14 15 1 84
14 154 29 209 44 384 54 583 36z m70 -322 c4 -4 -13 -210 -18 -214 -1 -1 -51
3 -112 8 -102 9 -324 -1 -408 -19 l-28 -5 3 108 3 109 75 12 c72 11 474 12
485 1z m165 -39 c25 -5 62 -14 83 -20 l39 -10 -4 -152 -3 -151 100 -41 c145
-60 212 -96 336 -180 61 -41 121 -75 134 -75 21 0 27 9 43 63 11 34 23 77 27
94 3 18 10 35 15 38 4 3 38 -27 75 -67 62 -67 66 -75 61 -108 -33 -208 -32
-598 3 -825 58 -384 184 -750 362 -1057 32 -55 39 -76 39 -120 l0 -53 -154
-80 -153 -80 -59 19 c-456 141 -941 459 -1256 824 -446 517 -684 1109 -715
1778 l-6 142 97 31 c53 17 101 31 106 31 6 0 10 -51 10 -129 0 -164 7 -174
105 -151 99 22 299 31 448 19 100 -8 152 -8 159 -1 5 5 14 63 20 128 5 66 11
125 14 132 4 14 15 15 74 1z m-1175 -19 c3 -5 1 -10 -4 -10 -6 0 -11 5 -11 10
0 6 2 10 4 10 3 0 8 -4 11 -10z m-335 -25 c0 -30 24 -80 52 -111 19 -21 19
-21 -46 -69 -35 -26 -67 -48 -70 -49 -2 0 -15 14 -28 33 -34 49 -83 73 -140
68 -27 -2 -48 -3 -48 -2 0 1 36 31 79 66 49 39 96 68 123 75 69 18 78 17 78
-11z m1856 -79 c107 -52 258 -147 322 -203 l32 -28 -22 -78 -21 -77 -26 17
c-106 70 -228 138 -315 174 -55 24 -105 46 -109 50 -13 11 4 199 18 199 7 0
61 -24 121 -54z m-2216 -160 c-5 -15 -10 -38 -10 -52 0 -28 0 -27 -35 -14
l-27 10 38 43 c22 24 40 42 42 42 1 -1 -2 -14 -8 -29z m184 5 c35 -38 39 -86
15 -166 -18 -61 -19 -77 -9 -90 23 -27 52 -16 107 40 57 58 107 80 148 65 32
-12 47 -43 36 -72 -16 -42 -55 -67 -136 -88 -89 -23 -98 -28 -93 -60 4 -28 13
-33 103 -54 53 -12 77 -24 98 -46 33 -36 36 -84 8 -100 -56 -29 -134 5 -194
84 -20 25 -35 36 -49 34 -35 -5 -44 -31 -28 -85 31 -108 19 -192 -30 -208 -24
-8 -56 9 -71 36 -16 30 -13 110 5 154 22 51 20 82 -4 95 -24 13 -49 2 -79 -36
-42 -53 -92 -84 -135 -84 -49 0 -66 13 -66 53 0 47 53 92 125 107 93 19 107
26 103 57 -4 31 -13 37 -102 57 -75 17 -109 41 -125 87 -8 23 -6 33 8 51 38
46 129 16 191 -63 39 -49 86 -55 96 -13 4 14 1 37 -5 50 -22 48 -31 110 -21
144 19 66 69 90 104 51z m-900 -230 c28 -30 35 -81 19 -136 -26 -99 -28 -117
-8 -131 11 -8 23 -14 27 -14 5 0 34 27 66 59 69 72 125 94 167 67 35 -23 34
-69 -3 -106 -26 -26 -112 -60 -152 -60 -23 0 -40 -20 -40 -46 0 -29 10 -35 95
-56 80 -20 125 -59 125 -106 0 -38 -17 -52 -65 -52 -47 0 -81 21 -139 84 -32
35 -47 44 -64 40 -31 -9 -36 -37 -17 -94 41 -124 -6 -235 -80 -186 -39 26 -49
75 -30 148 27 100 28 104 10 121 -24 25 -34 22 -80 -29 -59 -63 -93 -84 -140
-84 -48 0 -65 14 -65 53 0 47 53 92 125 107 89 18 105 26 105 54 0 31 -14 40
-85 56 -72 15 -109 32 -129 62 -41 58 -1 117 71 103 28 -5 53 -22 96 -66 59
-60 85 -71 107 -44 13 16 12 25 -13 117 -11 41 -13 67 -7 89 19 65 69 89 104
50z m505 -159 c-82 -65 -92 -213 -18 -253 25 -13 26 -8 -34 -180 -34 -97 -52
-135 -79 -163 -32 -33 -58 -91 -58 -129 0 -14 -4 -14 -35 -1 -19 7 -51 14 -71
14 l-36 0 6 38 c28 164 27 162 63 162 43 0 84 21 117 60 37 45 36 110 -3 172
-16 26 -39 52 -51 58 -21 11 -20 12 19 52 25 24 45 56 52 82 12 43 28 77 65
138 l23 36 35 -31 36 -32 -31 -23z m3125 -79 c104 -162 195 -385 235 -581 12
-56 26 -166 31 -245 12 -179 13 -787 1 -787 -9 0 -107 211 -148 320 -134 356
-206 782 -189 1130 7 139 16 230 22 230 3 0 24 -30 48 -67z m-3109 -583 c27
-30 30 -96 6 -167 -23 -70 -20 -90 17 -100 21 -5 31 1 66 41 53 61 93 86 135
86 36 0 71 -23 71 -47 0 -53 -68 -106 -152 -119 -53 -8 -88 -29 -88 -53 0 -27
17 -37 85 -51 33 -7 73 -19 88 -27 28 -14 67 -67 67 -90 0 -22 -39 -53 -67
-53 -37 0 -102 41 -141 89 -37 46 -74 54 -92 21 -8 -15 -5 -34 10 -79 25 -76
25 -117 0 -158 -40 -67 -120 -24 -120 65 0 18 9 59 20 92 22 66 19 87 -16 96
-21 5 -35 -4 -84 -54 -44 -45 -69 -63 -96 -68 -76 -14 -118 43 -74 99 29 36
62 52 138 67 42 9 66 19 73 31 13 25 -4 57 -34 63 -109 23 -134 32 -159 56
-73 74 -21 147 77 110 14 -5 50 -35 79 -65 56 -60 77 -66 100 -34 13 19 12 27
-5 77 -25 73 -25 132 2 166 25 32 68 35 94 6z m-200 -677 c4 -21 13 -50 21
-65 12 -23 14 -198 14 -1123 l0 -1095 -100 0 -100 0 0 1148 0 1148 53 0 c30 1
62 6 73 12 29 17 31 15 39 -25z m3865 -1448 l0 -836 -97 3 -98 3 -3 782 -2
783 97 49 c54 28 99 50 101 50 1 1 2 -375 2 -834z m-282 -72 l-3 -758 -294 -3
-294 -2 6 152 c14 378 116 803 276 1150 l39 87 124 64 c68 35 129 65 136 66
10 1 12 -153 10 -756z"/>
<path d="M1836 4688 c-23 -32 -20 -55 10 -84 42 -43 104 -15 104 46 0 56 -83
83 -114 38z"/>
<path d="M3535 3496 c-14 -21 -15 -42 -5 -168 26 -346 99 -611 252 -910 114
-224 232 -386 425 -579 127 -128 155 -149 181 -133 41 26 27 50 -106 181 -190
189 -316 362 -431 591 -144 286 -213 553 -236 912 -4 58 -12 111 -17 118 -16
19 -46 14 -63 -12z"/>
<path d="M3316 2675 c-25 -25 -20 -43 40 -149 160 -285 374 -532 624 -720 141
-106 184 -130 209 -116 32 17 27 55 -11 83 -190 137 -252 189 -374 311 -155
156 -242 267 -336 429 -109 188 -117 196 -152 162z"/>
<path d="M1466 3778 c-9 -12 -16 -33 -16 -45 0 -26 36 -63 61 -63 27 0 69 39
69 66 0 57 -83 87 -114 42z"/>
<path d="M570 3550 c-27 -27 -25 -62 3 -88 29 -27 61 -28 87 -2 40 40 11 110
-45 110 -14 0 -34 -9 -45 -20z"/>
<path d="M1090 2742 c-44 -35 -17 -112 39 -112 48 0 78 41 61 84 -17 45 -63
58 -100 28z"/>
<path d="M638 4968 c-53 -83 -71 -213 -44 -318 22 -84 56 -141 128 -211 35
-35 58 -67 58 -80 0 -20 -3 -19 -37 11 -63 56 -156 93 -244 98 -150 9 -185
-13 -153 -97 66 -175 228 -285 414 -280 l75 2 6 -62 c9 -94 35 -102 147 -46
114 58 195 164 223 296 16 72 5 177 -20 202 -18 18 -21 19 -68 3 -69 -23 -147
-79 -191 -136 -20 -27 -40 -49 -43 -49 -4 -1 -12 25 -19 58 -11 53 -10 64 10
124 19 55 22 82 18 159 -6 125 -41 200 -133 287 -72 67 -103 76 -127 39z m152
-224 c22 -60 27 -174 10 -220 l-11 -27 -30 29 c-71 68 -107 211 -79 314 l12
45 39 -43 c21 -24 47 -68 59 -98z m336 -415 c-3 -33 -15 -80 -25 -104 -35 -80
-164 -196 -177 -161 -9 23 14 122 40 173 31 60 127 153 160 153 5 0 6 -26 2
-61z m-508 17 c57 -29 117 -84 145 -134 l18 -32 -50 0 c-68 0 -149 32 -204 81
-42 36 -87 96 -87 114 0 18 127 -3 178 -29z"/>
<path d="M165 2993 c-11 -3 -46 -16 -78 -30 -74 -33 -82 -57 -38 -112 64 -81
172 -145 264 -157 26 -4 47 -8 47 -9 0 -1 -19 -21 -41 -45 -49 -51 -94 -143
-109 -219 -14 -74 -13 -88 9 -110 16 -16 26 -17 77 -9 182 28 324 170 356 357
10 61 10 72 -5 95 -9 14 -17 32 -17 39 0 21 -75 103 -126 138 -70 48 -145 69
-238 68 -45 -1 -90 -3 -101 -6z m250 -113 c34 -16 71 -40 84 -54 l23 -25 -43
-11 c-70 -19 -185 -8 -244 23 -108 57 -117 77 -40 96 64 16 153 5 220 -29z
m149 -227 c-22 -102 -112 -206 -207 -241 -51 -20 -52 -20 -55 -1 -5 29 41 121
83 167 34 39 142 102 172 102 9 0 12 -8 7 -27z"/>
<path d="M1329 2268 c-61 -115 -46 -294 35 -414 56 -82 166 -162 206 -149 28
9 52 81 57 175 6 94 -14 175 -63 251 -50 80 -152 159 -203 159 -11 0 -26 -10
-32 -22z m142 -163 c20 -26 44 -70 53 -97 17 -53 21 -164 8 -186 -12 -18 -98
76 -124 135 -22 50 -35 155 -24 198 6 25 8 26 29 12 12 -7 38 -35 58 -62z"/>
<path d="M2605 330 c-15 -17 -16 -24 -7 -45 l12 -25 349 0 c304 0 352 2 365
16 20 19 20 24 0 52 l-15 22 -343 0 c-330 0 -344 -1 -361 -20z"/>
</g>
</svg>
